<?xml version="1.0" encoding="utf-8"?>
<!-- Generator: Adobe Illustrator 15.0.2, SVG Export Plug-In . SVG Version: 6.00 Build 0)  -->
<!DOCTYPE svg PUBLIC "-//W3C//DTD SVG 1.1//EN" "http://www.w3.org/Graphics/SVG/1.1/DTD/svg11.dtd">
<svg version="1.1" id="Ebene_1" xmlns="http://www.w3.org/2000/svg" xmlns:xlink="http://www.w3.org/1999/xlink" x="0px" y="0px"
	 width="15px" height="15px" viewBox="0 0 15 15" enable-background="new 0 0 15 15" xml:space="preserve">
<path fill="#7FB7DA" d="M14.174,0.826c-0.551-0.55-1.211-0.825-1.986-0.825H2.812c-0.773,0-1.437,0.275-1.986,0.825
	C0.274,1.376,0,2.039,0,2.813v9.374c0,0.775,0.274,1.438,0.825,1.99c0.55,0.547,1.213,0.822,1.986,0.822h9.376
	c0.775,0,1.436-0.275,1.986-0.822C14.725,13.624,15,12.962,15,12.187V2.813C15,2.039,14.725,1.376,14.174,0.826z M12.5,7.813
	c0,0.271-0.127,0.465-0.381,0.574c-0.084,0.035-0.166,0.049-0.244,0.049c-0.176,0-0.322-0.062-0.439-0.184l-1.406-1.407L4.813,12.06
	c-0.123,0.125-0.269,0.188-0.438,0.188c-0.169,0-0.315-0.062-0.439-0.188L2.94,11.063c-0.125-0.123-0.187-0.27-0.187-0.438
	c0-0.17,0.062-0.316,0.187-0.441l5.214-5.213L6.748,3.565C6.546,3.376,6.501,3.149,6.61,2.881c0.111-0.253,0.304-0.38,0.577-0.38
	h4.688c0.17,0,0.314,0.062,0.439,0.186c0.123,0.123,0.186,0.27,0.186,0.439V7.813z"/>
</svg>
